<svg version="1.1" id="Layer_1" xmlns="http://www.w3.org/2000/svg" xmlns:xlink="http://www.w3.org/1999/xlink" x="0px" y="0px"
	 viewBox="0 0 500 500" style="enable-background:new 0 0 500 500;" xml:space="preserve">
<style type="text/css">
	.st0{fill:#0073BA;}
	.st1{fill:#FFFFFF;}
</style>
<circle class="st0" cx="250" cy="250" r="230"/>
<g>
	<path class="st1" d="M250.5,396.6c-33.6,0-63.4-12-89.2-36.1c-25.8-24.1-38.8-54.5-38.8-91.2c0-24.1,4.5-44.1,13.6-59.8
		c14.1-24.5,33.3-42.5,57.6-53.9c26.1-13.4,40.4-24.1,43-32.1c1.1-3.9,2.1-10.6,3.1-20c10.3,12.6,20.1,22.4,29.3,29.5
		c7.7,5.1,16.3,10.3,25.8,15.5c18.2,10,32.7,19.6,43.6,28.9c25.7,21.4,38.7,53.1,39,94.9c0,37.4-12.6,67.4-37.9,90.2
		C314.4,385.2,284.7,396.6,250.5,396.6z M339.2,347.7c7.4,0,14-4.7,20-14c4.8-8.4,7.3-20.1,7.3-35.1c0-2.7-0.7-6.4-2-11.1
		c-1.3-4.7-3.4-8.9-6.3-12.6c-2.9-3.7-6.5-5.6-10.8-5.6c-5,0-13.1,4.9-24.3,14.7c-11.2,9.8-19.4,14.7-24.6,14.7
		c-7,0-15.7-3.6-26.3-10.8c-7.4-4.3-15.4-8.5-24.2-12.5c-8.8-4.1-18-6.1-27.6-6.1c-13.5,0-25.1,3.8-34.7,11.2
		c-9.6,7.5-14.4,16.9-14.4,28.2c0,6.1,2,11.8,6.1,17c5.5,6.4,10.5,10.9,15,13.3c7,5.7,16.3,8.5,27.9,8.5c7.6,0,15.6-1.8,23.8-5.4
		c8.2-3.6,16.3-7.5,24.1-11.8c12.4-7.6,22.4-11.7,30.2-12.2c4.9,0.6,12.2,6,21.8,16.2c3.5,3.5,6.8,6.6,9.8,9.3
		C333.1,346.3,336.1,347.7,339.2,347.7z M273.8,382.6c10.5,0,19.1-1.3,25.7-3.9c11.3-4.3,16.9-8.2,16.9-11.9c0-2.3-0.7-3.5-2-3.5
		c-0.7,0-1.4,0.2-2.4,0.7c-5.6,6.7-17.7,10.1-36.2,10.1c-15.3,0-26-2.6-32.3-7.8c-0.2-0.5-0.4-0.7-0.6-0.8c-0.2,0-0.4-0.2-0.6-0.3
		c-0.1-0.2-0.4-0.3-0.8-0.3c-1.2,0-2.4,0.6-3.4,1.7c-1.1,1.2-1.7,2.4-1.7,3.6c0,1.1,0.5,2.1,1.5,3.1c6.1,4.8,13.6,7.7,22.5,8.7
		C265.1,382.4,269.5,382.6,273.8,382.6z M266.7,353c1.1,0,3.2-1.5,6.3-4.6c2.1-2.4,4.4-4.3,6.7-5.6c2.3-1.3,5.9-2,10.6-2
		c7.5,0,12.2,2.5,13.8,7.5c1.2,2.6,2,3.9,2.5,3.9c2.9,0,4.3-1.6,4.3-4.8c0-0.7-0.4-1.3-1.1-2c-0.7-0.7-1.4-1.8-2.1-3.3
		c-1.4-2.8-3.1-5.1-5-6.8c-2-1.7-6.1-2.6-12.4-2.6c-8.9,0-17,4-24,11.9c-1.9,1.2-2.8,2.7-2.8,4.3c0,0.9,0.6,1.8,1.8,2.5
		C265.7,352.5,266.1,353,266.7,353z"/>
</g>
</svg>
