<svg version="1.1" xmlns="http://www.w3.org/2000/svg" xmlns:xlink="http://www.w3.org/1999/xlink" preserveAspectRatio="xMidYMid meet" viewBox="0 0 200 200" width="200" height="200"><defs><path d="M22.2 108.25C22.2 75.54 43.6 46.46 75.51 36.77C82.37 34.34 87.62 19.4 88.83 14.96C88.97 14.34 89.64 11.24 90.85 5.67C94 10.28 95.75 12.83 96.1 13.34C100.54 20.21 109.02 33.54 114.68 34.34C149.81 41.61 175.66 72.71 175.66 108.25C175.66 149.44 141.33 183.36 98.93 183.36C56.52 183.36 22.2 149.44 22.2 108.25Z" id="b1lKHeZvSU"></path><path d="M140.71 66.98L142.21 67.11L143.69 67.27L145.14 67.49L146.55 67.74L147.94 68.04L149.29 68.37L150.6 68.75L151.87 69.16L153.11 69.62L154.3 70.11L155.45 70.63L156.55 71.19L157.61 71.79L158.61 72.42L159.56 73.08L160.46 73.78L161.3 74.51L162.09 75.26L162.81 76.05L163.48 76.87L164.08 77.71L164.61 78.58L165.08 79.48L165.48 80.4L165.81 81.35L166.06 82.32L166.24 83.32L166.34 84.32L166.37 85.33L166.31 86.33L166.18 87.33L165.98 88.32L165.71 89.31L165.36 90.28L164.95 91.25L164.47 92.21L163.92 93.15L163.31 94.08L162.64 95L161.91 95.9L161.12 96.78L160.27 97.65L159.37 98.49L158.41 99.31L157.4 100.11L156.34 100.89L155.23 101.64L154.07 102.36L152.86 103.06L151.61 103.72L150.32 104.36L148.99 104.96L147.62 105.53L146.21 106.07L144.76 106.56L143.28 107.02L141.76 107.45L140.22 107.83L138.64 108.17L137.04 108.47L135.41 108.72L133.77 108.93L132.15 109.08L130.54 109.19L128.95 109.25L127.38 109.26L125.83 109.23L124.3 109.15L122.8 109.02L121.32 108.85L119.87 108.64L118.46 108.39L117.07 108.09L115.72 107.75L114.41 107.38L113.13 106.96L112.37 106.68L111.69 107.32L110.73 108.14L109.72 108.94L108.66 109.72L107.55 110.47L106.39 111.19L105.19 111.89L103.94 112.55L102.65 113.19L101.31 113.79L99.94 114.36L98.53 114.89L97.08 115.39L95.6 115.85L94.09 116.27L92.54 116.66L90.97 117L89.36 117.29L87.73 117.55L86.1 117.75L84.47 117.91L82.86 118.02L81.27 118.08L79.7 118.09L78.15 118.05L76.62 117.97L75.12 117.85L73.64 117.68L72.2 117.47L70.78 117.21L69.39 116.92L68.05 116.58L66.73 116.21L65.46 115.79L64.22 115.34L63.03 114.85L61.88 114.32L60.78 113.76L59.73 113.16L58.72 112.53L57.77 111.87L56.87 111.17L56.03 110.45L55.24 109.69L54.52 108.9L53.86 108.09L53.25 107.24L52.72 106.37L52.25 105.47L51.85 104.55L51.53 103.6L51.27 102.63L51.09 101.64L50.99 100.63L50.97 99.63L51.02 98.62L51.15 97.63L51.35 96.63L51.62 95.65L51.97 94.67L52.38 93.7L52.86 92.75L53.41 91.8L54.02 90.87L54.69 89.96L55.42 89.06L56.21 88.17L57.06 87.31L57.96 86.46L58.92 85.64L59.93 84.84L61 84.07L62.11 83.32L63.27 82.59L64.47 81.9L65.72 81.23L67.01 80.6L68.34 79.99L69.72 79.42L71.13 78.89L72.57 78.39L74.05 77.93L75.57 77.51L77.11 77.13L78.69 76.79L80.29 76.49L81.92 76.23L83.56 76.03L85.18 75.87L86.79 75.76L88.38 75.71L89.95 75.69L91.51 75.73L93.03 75.81L94.54 75.93L96.01 76.1L97.46 76.31L98.88 76.57L100.26 76.86L101.61 77.2L102.92 77.58L104.2 77.99L104.96 78.27L105.64 77.64L106.6 76.81L107.61 76.01L108.67 75.24L109.78 74.49L110.94 73.76L112.15 73.07L113.4 72.4L114.69 71.77L116.02 71.17L117.39 70.6L118.8 70.06L120.25 69.56L121.73 69.1L123.24 68.68L124.79 68.3L126.37 67.96L127.97 67.66L129.6 67.41L131.24 67.2L132.86 67.04L134.47 66.94L136.06 66.88L137.63 66.87L139.18 66.9L140.71 66.98Z" id="c1TDCydFfG"></path><path d="M148.94 143.95C126.82 166.48 108.92 167.09 95.26 145.78" id="aEQgtm2VL"></path></defs><g><g><g><use xlink:href="#b1lKHeZvSU" opacity="1" fill="#039be5" fill-opacity="1"></use><use xlink:href="#b1lKHeZvSU" opacity="1" fill="#039be5" fill-opacity="1"></use><g><use xlink:href="#b1lKHeZvSU" opacity="1" fill-opacity="0" stroke="#000000" stroke-width="1" stroke-opacity="0"></use></g></g><g><use xlink:href="#c1TDCydFfG" opacity="1" fill="#ffffff" fill-opacity="1"></use></g><g><g><use xlink:href="#aEQgtm2VL" opacity="1" fill-opacity="0" stroke="#ffffff" stroke-width="5" stroke-opacity="1"></use></g></g></g></g></svg>